<svg xmlns="http://www.w3.org/2000/svg" viewBox="0 0 220 150" role="img" aria-label="Contact">
  <defs>
    <linearGradient id="bubble" x1="43" y1="24" x2="180" y2="120" gradientUnits="userSpaceOnUse">
      <stop stop-color="#ffffff"/>
      <stop offset="1" stop-color="#edf6fb"/>
    </linearGradient>
    <linearGradient id="phone" x1="78" y1="43" x2="144" y2="110" gradientUnits="userSpaceOnUse">
      <stop stop-color="#f2b35f"/>
      <stop offset="1" stop-color="#d88936"/>
    </linearGradient>
    <filter id="shadow" x="0" y="0" width="220" height="150" filterUnits="userSpaceOnUse">
      <feDropShadow dx="0" dy="13" stdDeviation="12" flood-color="#0f172a" flood-opacity="0.14"/>
    </filter>
  </defs>
  <g filter="url(#shadow)">
    <path d="M38 40c0-14 11-25 25-25h96c14 0 25 11 25 25v48c0 14-11 25-25 25h-57l-36 22v-22h-3c-14 0-25-11-25-25V40Z" fill="url(#bubble)" stroke="#d9e4eb" stroke-width="3"/>
    <path d="M86 50c8 25 24 41 50 50l13-16c2-3 1-7-2-9l-17-9c-3-1-6-1-8 2l-5 6c-8-5-15-12-20-20l6-5c3-2 3-6 2-8l-9-17c-2-4-7-5-10-2L70 35l16 15Z" fill="url(#phone)"/>
  </g>
</svg>
