<?xml version="1.0" encoding="UTF-8"?>
<svg xmlns="http://www.w3.org/2000/svg" width="312.9" height="138.2" viewBox="0 0 312.9 138.2">
  <defs>
    <style>.cls-1{fill:#0e2d6d;}</style>
  </defs>
  <g id="Layer_2" data-name="Layer 2">
    <g id="Layer_1-2" data-name="Layer 1">
      <path class="cls-1" d="M73.7,35.2h47.6l3.2,3.4a3.3,3.3,0,0,0,2.1.9h.3l1.4-.6.3-.2a3.7,3.7,0,0,0,.9-2,2.8,2.8,0,0,0-.8-2l-4.1-4.3a2.5,2.5,0,0,0-2-.9H73.7a2.9,2.9,0,1,0,0,5.7Z"></path>
      <path class="cls-1" d="M118.8,87.4a2.8,2.8,0,0,0-2,.8L102.1,103a5.7,5.7,0,0,1-.3-1.8V92.8a2.7,2.7,0,0,0-2.7-2.6,2.6,2.6,0,0,0-2.6,2.6v8.4a10.2,10.2,0,0,0,10.2,10.2h8.4a2.7,2.7,0,0,0,0-5.3H107l13.8-13.9a2.8,2.8,0,0,0,0-4A2.8,2.8,0,0,0,118.8,87.4Z"></path>
      <path class="cls-1" d="M84,113H75.6a2.7,2.7,0,1,0,0,5.3H84a3.9,3.9,0,0,1,1.8.4L73.3,131.3,33.6,91.4,6.9,65.3,30.2,41.1a3.1,3.1,0,0,0,.7-2.1,2.8,2.8,0,0,0-.9-2,2.6,2.6,0,0,0-1.9-.7,3,3,0,0,0-2.1.8L.8,63.4a2.8,2.8,0,0,0,.1,4L29.6,95.5l41.6,41.8a2.9,2.9,0,0,0,2.1.9,2.8,2.8,0,0,0,2-.9l13.6-13.6v7.9a2.7,2.7,0,1,0,5.3,0v-8.4A10.2,10.2,0,0,0,84,113Z"></path>
      <path class="cls-1" d="M75.6,111.5H84a10.2,10.2,0,0,0,10.2-10.2V92.9a2.7,2.7,0,0,0-5.3,0v8.4a4.9,4.9,0,0,1-4.9,4.9H75.6a2.7,2.7,0,1,0,0,5.3Z"></path>
      <path class="cls-1" d="M115.1,113h-8.4a10.2,10.2,0,0,0-10.2,10.2v8.4a2.6,2.6,0,0,0,2.6,2.7,2.7,2.7,0,0,0,2.7-2.7v-8.4a4.9,4.9,0,0,1,4.9-4.9h8.4a2.7,2.7,0,0,0,0-5.3Z"></path>
      <path class="cls-1" d="M14.2,27.1H30a8.6,8.6,0,0,0,8.6-8.6V2.7A2.7,2.7,0,0,0,35.9,0a2.6,2.6,0,0,0-2.6,2.7V18.5A3.3,3.3,0,0,1,30,21.8H14.2a2.7,2.7,0,1,0,0,5.3Z"></path>
      <path class="cls-1" d="M43.7,56.6a2.7,2.7,0,0,0,2.7-2.7V38.1a3.2,3.2,0,0,1,3.2-3.3H65.5a2.7,2.7,0,0,0,0-5.3H49.6a8.6,8.6,0,0,0-8.5,8.6V53.9A2.7,2.7,0,0,0,43.7,56.6Z"></path>
      <path class="cls-1" d="M49.6,27.1H65.5a2.7,2.7,0,0,0,0-5.3H49.6a3.2,3.2,0,0,1-3.2-3.3V2.7a2.7,2.7,0,1,0-5.3,0V18.5A8.5,8.5,0,0,0,49.6,27.1Z"></path>
      <path class="cls-1" d="M14.2,34.8H30a3.3,3.3,0,0,1,3.3,3.3V53.9a2.6,2.6,0,0,0,2.6,2.7,2.7,2.7,0,0,0,2.7-2.7V38.1A8.7,8.7,0,0,0,30,29.5H14.2a2.7,2.7,0,1,0,0,5.3Z"></path>
      <path class="cls-1" d="M65.9,54.6H85.3a2.7,2.7,0,0,0,3-3c0-3.3-2.3-3.6-3-3.6H63l-2,.2a12.8,12.8,0,0,0-5.7,2.4,6.9,6.9,0,0,0-3,5.7V71.3a7.3,7.3,0,0,0,1.2,4.3A10.5,10.5,0,0,0,57,78.4a17.4,17.4,0,0,0,4,1.4,37.8,37.8,0,0,0,5.6.3H85.2a3,3,0,0,0,3.1-3.3c0-2.1-1.2-3.4-3.1-3.4H66.6c-2.5,0-6.7-.3-6.7-2.2V56.3C59.9,55.2,62.1,54.6,65.9,54.6Z"></path>
      <path class="cls-1" d="M127.5,49.4h0a24.6,24.6,0,0,0-8.8-1.4h-22a2.8,2.8,0,0,0-3,3V77.1a2.5,2.5,0,0,0,1.9,2.7c.3.2.9.3,2.8.3a2.7,2.7,0,0,0,2.9-3V69.8l23.5,10a.1.1,0,0,0,.1.1l2.3.2c3.7,0,4.3-1.8,4.3-2.9a3.2,3.2,0,0,0-2.1-2.9L116,68.6h3.7a23.7,23.7,0,0,0,8.3-1.4c3.2-1.5,4.9-3.8,4.9-6.9V56.6C132.9,53.3,131.1,50.8,127.5,49.4Zm-2.2,7.1v3.8c0,1.1-2.1,1.7-5.6,1.7H101.3V54.6h17.4C122.8,54.6,125.3,55.3,125.3,56.5Z"></path>
      <path class="cls-1" d="M169.7,48c-2,0-3.2.2-3.7.8L153.6,60.7,141.2,48.8c-.6-.6-1.7-.8-3.8-.8s-3.2,2.1-3.2,2.7a3.8,3.8,0,0,0,1.1,2.5L149.8,67V77.1a2.7,2.7,0,0,0,3,3,9.7,9.7,0,0,0,2.7-.2,2.8,2.8,0,0,0,1.9-2.8V67l14.4-13.9a3.3,3.3,0,0,0,1.2-2.4C173,50,172.8,48,169.7,48Z"></path>
      <path class="cls-1" d="M205.8,61.9a20.9,20.9,0,0,0-8.7-1.5H186.9l-1.7-.2c-1.2-.2-2.5-.6-2.5-1.5V56.6c0-1.3,3-2,7.9-2,2.2,0,2.5-.1,2.7-.2a2.6,2.6,0,0,0,1.8-2.8c0-3.3-2-3.6-2.9-3.6-5.1,0-8.6.2-10.5.7-4.4,1.3-6.6,4-6.6,8V59a6.7,6.7,0,0,0,2.7,5.5,11.9,11.9,0,0,0,5.7,2.1l2.5.2h2.2l9.1.3c3.9.1,6.3.8,6.3,1.9v2.6c0,1.1-2.4,1.7-6.5,1.7H178.2a2.6,2.6,0,0,0-2.6,1.3,4.9,4.9,0,0,0-.4,2.4,2.7,2.7,0,0,0,3,3H197c7.4,0,11.8-1.4,13.3-4.2a8.9,8.9,0,0,0,.9-4.3V68.9C211.2,65.7,209.4,63.4,205.8,61.9Z"></path>
      <path class="cls-1" d="M238.9,51.6c0-3.3-2.1-3.6-3-3.6H206.4a2.8,2.8,0,0,0-2.6,1.2,4.9,4.9,0,0,0-.4,2.4,2.7,2.7,0,0,0,3,3h10.9V77.1a2.7,2.7,0,0,0,2,2.8,8.7,8.7,0,0,0,2.6.2,2.7,2.7,0,0,0,3-3V54.6h11A2.7,2.7,0,0,0,238.9,51.6Z"></path>
      <path class="cls-1" d="M273.3,75.6,255.1,49.8l-.3-.5a3.7,3.7,0,0,0-3.5-1.7,5,5,0,0,0-4.5,2.2L229.5,76.1c0,.1-.1.2-.1.3l-.2.5v.3a2.7,2.7,0,0,0,1.4,2.4,4,4,0,0,0,2.3.8,3.3,3.3,0,0,0,2.6-1.6l4.6-6.6h21.8l4.5,6.6a4.3,4.3,0,0,0,3.5,1.9,3.5,3.5,0,0,0,2.6-1.1,3.3,3.3,0,0,0,1.1-2.6,2.4,2.4,0,0,0-.2-1.3Zm-16-10.1H244.7l6.3-9.2Z"></path>
      <path class="cls-1" d="M309.9,73.4H292.7a29.1,29.1,0,0,1-5.4-.3c-2.9-.5-2.9-1.6-2.9-2V51a2.6,2.6,0,0,0-2-2.8,9.3,9.3,0,0,0-2.6-.2,2.7,2.7,0,0,0-3,3V71.1c0,3.9,2,6.5,5.9,7.9a35.4,35.4,0,0,0,9.7,1.1h17.5a2.7,2.7,0,0,0,3-3C312.9,73.7,310.6,73.4,309.9,73.4Z"></path>
    </g>
  </g>
</svg>
